<svg width="1148" height="499" viewBox="0 0 1148 499" fill="none" xmlns="http://www.w3.org/2000/svg">
  <defs>
    <linearGradient id="capBlue" x1="84" y1="18" x2="383" y2="213" gradientUnits="userSpaceOnUse">
      <stop offset="0" stop-color="#0E4FB0"/>
      <stop offset="0.56" stop-color="#1663D6"/>
      <stop offset="1" stop-color="#1D8EFF"/>
    </linearGradient>
    <linearGradient id="hubBlue" x1="507" y1="148" x2="1112" y2="389" gradientUnits="userSpaceOnUse">
      <stop offset="0" stop-color="#0D2B80"/>
      <stop offset="0.52" stop-color="#1663D6"/>
      <stop offset="1" stop-color="#2AB8FF"/>
    </linearGradient>
    <linearGradient id="orangeArm" x1="22" y1="334" x2="157" y2="358" gradientUnits="userSpaceOnUse">
      <stop offset="0" stop-color="#F4A620"/>
      <stop offset="1" stop-color="#FDB72E"/>
    </linearGradient>
  </defs>
  <circle cx="38" cy="148" r="24" fill="#247CFF"/>
  <circle cx="399" cy="148" r="24" fill="#2AB8FF"/>
  <circle cx="38" cy="337" r="24" fill="url(#orangeArm)"/>
  <circle cx="399" cy="337" r="24" fill="#2AB8FF"/>
  <circle cx="212" cy="465" r="24" fill="#2C78FF"/>
  <path d="M214.5 8L425 105L360 133C336.677 124.203 311.812 119.5 286 119.5C260.188 119.5 235.323 124.203 212 133L150 105L214.5 8Z" fill="url(#capBlue)"/>
  <path d="M367 119V171" stroke="#1863D6" stroke-width="10" stroke-linecap="round"/>
  <circle cx="367" cy="181" r="12" fill="#1863D6"/>
  <path d="M367 193L356 227H378L367 193Z" fill="#1863D6"/>
  <path d="M210 118C319.315 118 408 206.685 408 316C408 358.113 394.794 397.145 372.297 428.991L378 463L325.173 432.997C293.985 451.761 257.463 462.5 218.433 462.5C104.415 462.5 12 370.085 12 256.067C12 142.049 104.415 49.6338 218.433 49.6338C263.117 49.6338 304.731 63.8319 338.78 87.9706" fill="white"/>
  <path d="M210 118C319.315 118 408 206.685 408 316C408 358.113 394.794 397.145 372.297 428.991L378 463L325.173 432.997C293.985 451.761 257.463 462.5 218.433 462.5C104.415 462.5 12 370.085 12 256.067C12 142.049 104.415 49.6338 218.433 49.6338C263.117 49.6338 304.731 63.8319 338.78 87.9706" stroke="#155ABF" stroke-width="13" stroke-linejoin="round"/>
  <path d="M94 186L42 155" stroke="#247CFF" stroke-width="12" stroke-linecap="round"/>
  <path d="M96 315L40 345" stroke="url(#orangeArm)" stroke-width="12" stroke-linecap="round"/>
  <path d="M343 188L395 155" stroke="#2AB8FF" stroke-width="12" stroke-linecap="round"/>
  <path d="M344 316L398 346" stroke="#2AB8FF" stroke-width="12" stroke-linecap="round"/>
  <path d="M212 436V452" stroke="#2C78FF" stroke-width="12" stroke-linecap="round"/>
  <circle cx="212" cy="216" r="38" fill="url(#hubBlue)"/>
  <path d="M147 306C154.448 267.395 180.724 246 212 246C243.276 246 269.552 267.395 277 306H147Z" fill="url(#hubBlue)"/>
  <path d="M516 206C516 190.536 528.536 178 544 178H625C640.464 178 653 190.536 653 206C653 221.464 640.464 234 625 234H597V393C597 408.464 584.464 421 569 421C553.536 421 541 408.464 541 393V234H544C528.536 234 516 221.464 516 206Z" fill="#14398C"/>
  <path d="M656 394L770 121C776.258 106.013 790.82 96.3668 806.986 96.5003C823.152 96.6337 837.553 106.519 843.563 121.607L955 394.607C961.11 409.57 953.937 426.649 938.974 432.759C924.011 438.869 906.932 431.697 900.822 416.734L876.246 356.5H736.338L711.763 416.734C705.653 431.697 688.574 438.869 673.611 432.759C658.648 426.649 651.476 409.57 657.586 394.607L656 394ZM758.712 301H854.523L806.617 183.536L758.712 301Z" fill="#14398C"/>
  <path d="M829 121C829 106.088 841.088 94 856 94C870.912 94 883 106.088 883 121V216H977V121C977 106.088 989.088 94 1004 94C1018.91 94 1031 106.088 1031 121V394C1031 408.912 1018.91 421 1004 421C989.088 421 977 408.912 977 394V271H883V394C883 408.912 870.912 421 856 421C841.088 421 829 408.912 829 394V121Z" fill="#247CFF"/>
  <path d="M940 317C940 249.665 975.94 206 1030 206C1061.71 206 1084.91 217.951 1099 242.03V121C1099 106.088 1111.09 94 1126 94C1140.91 94 1153 106.088 1153 121V394C1153 408.912 1140.91 421 1126 421C1111.09 421 1099 408.912 1099 394V381.97C1084.91 406.049 1061.71 418 1030 418C975.94 418 940 384.335 940 317ZM1099 317C1099 278.707 1075.29 254 1040.5 254C1005.71 254 982 278.707 982 317C982 355.293 1005.71 380 1040.5 380C1075.29 380 1099 355.293 1099 317Z" fill="#247CFF"/>
</svg>
